<svg width="254" height="80" viewBox="0 0 254 80" fill="none" xmlns="http://www.w3.org/2000/svg">
<g clip-path="url(#clip0)">
<path d="M57.2204 25.3732L46.6873 35.9064L50.7656 39.9847L61.2987 29.4515L57.2204 25.3732Z" fill="#F13C6E"/>
<path d="M35.9094 46.7065L25.3762 57.2397L29.4545 61.318L39.9877 50.7848L35.9094 46.7065Z" fill="#F13C6E"/>
<path d="M50.5173 18.706L39.9842 29.2391L44.0625 33.3174L54.5956 22.7843L50.5173 18.706Z" fill="#F13C6E"/>
<path d="M29.2355 40.0106L18.7023 50.5437L22.7806 54.622L33.3138 44.0889L29.2355 40.0106Z" fill="#F13C6E"/>
<path d="M22.7576 25.3729L18.6793 29.4512L29.2124 39.9844L33.2907 35.9061L22.7576 25.3729Z" fill="#F13C6E"/>
<path d="M29.454 18.699L25.3757 22.7773L35.9089 33.3104L39.9872 29.2321L29.454 18.699Z" fill="#F13C6E"/>
<path d="M50.7592 39.9809L46.6809 44.0592L57.2141 54.5923L61.2924 50.514L50.7592 39.9809Z" fill="#F13C6E"/>
<path d="M44.092 46.6841L40.0137 50.7624L50.5468 61.2955L54.6251 57.2172L44.092 46.6841Z" fill="#F13C6E"/>
<path d="M54.6058 65.3942L50.5394 61.3278L40 71.8672L29.4606 61.3278L25.3942 65.3942L40 80L54.6058 65.3942Z" fill="#EFEFEF"/>
<path d="M18.6722 29.4606L14.6058 25.3942L0 40L14.6058 54.6058L18.6722 50.5394L8.13278 40L18.6722 29.4606Z" fill="#EFEFEF"/>
<path d="M65.3942 25.3942L61.3278 29.4606L71.8672 40L61.3278 50.5394L65.3942 54.6058L80 40L65.3942 25.3942Z" fill="#EFEFEF"/>
<path d="M50.5394 18.6722L54.6058 14.6058L40 0L25.3942 14.6058L29.4606 18.6722L40 8.13278L50.5394 18.6722Z" fill="#EFEFEF"/>
</g>
<path d="M102.285 54V28.4062H111.25C114.355 28.4062 116.711 29.0039 118.316 30.1992C119.922 31.3828 120.725 33.123 120.725 35.4199C120.725 36.6738 120.402 37.7812 119.758 38.7422C119.113 39.6914 118.217 40.3887 117.068 40.834C118.381 41.1621 119.412 41.8242 120.162 42.8203C120.924 43.8164 121.305 45.0352 121.305 46.4766C121.305 48.9375 120.52 50.8008 118.949 52.0664C117.379 53.332 115.141 53.9766 112.234 54H102.285ZM107.559 42.8555V49.7637H112.076C113.318 49.7637 114.285 49.4707 114.977 48.8848C115.68 48.2871 116.031 47.4668 116.031 46.4238C116.031 44.0801 114.818 42.8906 112.393 42.8555H107.559ZM107.559 39.1289H111.461C114.121 39.082 115.451 38.0215 115.451 35.9473C115.451 34.7871 115.111 33.9551 114.432 33.4512C113.764 32.9355 112.703 32.6777 111.25 32.6777H107.559V39.1289ZM144.276 42.9082H134.151V49.7637H146.034V54H128.877V28.4062H145.998V32.6777H134.151V38.7773H144.276V42.9082ZM167.177 48.7266H157.93L156.173 54H150.565L160.093 28.4062H164.979L174.559 54H168.952L167.177 48.7266ZM159.354 44.4551H165.753L162.536 34.875L159.354 44.4551ZM199.605 28.4062V45.2637C199.605 48.0645 198.726 50.2793 196.968 51.9082C195.222 53.5371 192.831 54.3516 189.796 54.3516C186.808 54.3516 184.435 53.5605 182.677 51.9785C180.919 50.3965 180.023 48.2227 179.988 45.457V28.4062H185.261V45.2988C185.261 46.9746 185.659 48.1992 186.456 48.9727C187.265 49.7344 188.378 50.1152 189.796 50.1152C192.761 50.1152 194.267 48.5566 194.314 45.4395V28.4062H199.605ZM226.795 32.6777H218.955V54H213.681V32.6777H205.947V28.4062H226.795V32.6777ZM242.523 39.9375L247.85 28.4062H253.615L245.213 44.7188V54H239.852V44.7188L231.449 28.4062H237.232L242.523 39.9375Z" fill="#F13C6E"/>
<defs>
<clipPath id="clip0">
<rect width="80" height="80" fill="white"/>
</clipPath>
</defs>
</svg>
